<?xml version="1.0" encoding="utf-8"?>
<!-- Generator: Adobe Illustrator 24.0.1, SVG Export Plug-In . SVG Version: 6.00 Build 0)  -->
<svg version="1.1" id="Layer_1" xmlns="http://www.w3.org/2000/svg" xmlns:xlink="http://www.w3.org/1999/xlink" x="0px" y="0px"
	 viewBox="0 0 100 100" style="enable-background:new 0 0 100 100;" xml:space="preserve">
<style type="text/css">
	.st0{fill:#FFFFFF;}
</style>
<path class="st0" d="M50,5c24.81,0,45,20.19,45,45S74.81,95,50,95S5,74.81,5,50S25.19,5,50,5 M50,0C22.39,0,0,22.39,0,50
	s22.39,50,50,50s50-22.39,50-50S77.61,0,50,0L50,0z"/>
<g>
	<path class="st0" d="M53.18,50.24c-1.58,1.85-3,3.21-2.99,3.2c0.01-0.01-1.23,1.51-2.97,3.22c-1.39,1.38-2.94,2.73-4.66,4.02
		c-1.95,1.46-4.99,1.65-6.65,0.64c-1.65-1.01-4.83-3.05-7.21-2.53c-2,0.44-4.65,1.9-7.85,5.67c-7.53,8.89-0.78,11.67,3.89,15.25
		C29.43,83.3,44.86,74.43,59,59.97c14.14-14.46,19.46-29.42,15.55-33.82c-3.92-4.4-7.18-10.93-15.5-2.77
		c-3.53,3.46-4.8,6.21-5.09,8.24c-0.35,2.41,1.92,5.44,3.05,7.01c1.13,1.58,1.16,4.63-0.16,6.68
		C55.69,47.11,54.45,48.75,53.18,50.24z"/>
</g>
</svg>
