<?xml version="1.0" encoding="utf-8"?>
<!-- Generator: Adobe Illustrator 24.0.1, SVG Export Plug-In . SVG Version: 6.00 Build 0)  -->
<svg version="1.1" id="Layer_1" xmlns="http://www.w3.org/2000/svg" xmlns:xlink="http://www.w3.org/1999/xlink" x="0px" y="0px"
	 viewBox="0 0 100 100" style="enable-background:new 0 0 100 100;" xml:space="preserve">
<style type="text/css">
	.st0{fill:#9D9D9C;}
</style>
<path class="st0" d="M50,5c24.81,0,45,20.19,45,45S74.81,95,50,95S5,74.81,5,50S25.19,5,50,5 M50,0C22.39,0,0,22.39,0,50
	s22.39,50,50,50s50-22.39,50-50S77.61,0,50,0L50,0z"/>
<g>
	<g>
		<circle class="st0" cx="49.89" cy="27.68" r="17.2"/>
		<path class="st0" d="M26.02,72.93c-0.44-5.67,0.45-10.89,1.83-15.37c-1.36,6.14-1.68,14.25,0.77,24.66h8.12
			c2.76,4.38,7.62,7.29,13.16,7.29s10.4-2.92,13.16-7.29h8.27c0,0,3.5-12.5,0.73-24.99c1.44,4.56,2.39,9.9,1.94,15.7
			c0,0,8.45-6.97,5.19-16.9c-3.26-9.94-14.74-13.68-14.74-13.68c-3.75,3.69-8.88,5.97-14.54,5.97c-5.59,0-10.66-2.23-14.39-5.83
			c0,0-11.41,3.6-14.67,13.54C17.56,65.96,26.02,72.93,26.02,72.93z M49.89,61.53c6.95,0,12.57,5.63,12.57,12.57
			c0,6.95-5.63,12.58-12.57,12.58c-6.95,0-12.58-5.63-12.58-12.58C37.31,67.15,42.94,61.53,49.89,61.53z"/>
		<path class="st0" d="M49.87,69.41c1.65,0,2.75-0.99,2.75-2.51s-1.09-2.53-2.75-2.53c-1.65,0-2.72,1.01-2.72,2.53
			S48.22,69.41,49.87,69.41z"/>
		<rect x="47.39" y="71.34" class="st0" width="4.83" height="12.49"/>
	</g>
</g>
</svg>
