<?xml version="1.0" encoding="utf-8"?>
<!-- Generator: Adobe Illustrator 24.0.1, SVG Export Plug-In . SVG Version: 6.00 Build 0)  -->
<svg version="1.1" id="Layer_1" xmlns="http://www.w3.org/2000/svg" xmlns:xlink="http://www.w3.org/1999/xlink" x="0px" y="0px"
	 viewBox="0 0 100 100" style="enable-background:new 0 0 100 100;" xml:space="preserve">
<path d="M50,5c24.81,0,45,20.19,45,45S74.81,95,50,95S5,74.81,5,50S25.19,5,50,5 M50,0C22.39,0,0,22.39,0,50s22.39,50,50,50
	s50-22.39,50-50S77.61,0,50,0L50,0z"/>
<g>
	<path d="M50,56.7c-1.86,0-3.36,1.51-3.36,3.36c0,1.07,0.5,2.02,1.28,2.64v3.44c0,1.15,0.93,2.09,2.09,2.09
		c1.15,0,2.09-0.93,2.09-2.09V62.7c0.78-0.62,1.28-1.57,1.28-2.64C53.36,58.21,51.86,56.7,50,56.7z"/>
	<path d="M50,40.04c-3.54,0-6.42,2.88-6.42,6.42v5.28h12.85v-5.28C56.42,42.92,53.54,40.04,50,40.04z"/>
	<path d="M82.11,43.69L52.25,18.03c-1.29-1.11-3.21-1.11-4.5,0L17.89,43.69c-1.15,0.99-1.56,2.58-1.03,4s1.88,2.36,3.39,2.36h3.84
		v30.02c0,1.51,1.23,2.74,2.74,2.74h46.36c1.51,0,2.74-1.23,2.74-2.74V50.05h3.84c1.51,0,2.86-0.94,3.39-2.36
		C83.67,46.27,83.26,44.68,82.11,43.69L82.11,43.69z M64.81,70.47c0,1.06-0.86,1.92-1.92,1.92H37.11c-1.06,0-1.92-0.86-1.92-1.92
		V53.66c0-1.06,0.86-1.92,1.92-1.92h1.82v-5.28c0-6.11,4.97-11.08,11.08-11.08s11.08,4.97,11.08,11.08v5.28h1.82
		c1.06,0,1.92,0.86,1.92,1.92V70.47z"/>
</g>
</svg>
