<?xml version="1.0" encoding="utf-8"?>
<!-- Generator: Adobe Illustrator 24.0.1, SVG Export Plug-In . SVG Version: 6.00 Build 0)  -->
<svg version="1.1" id="Layer_1" xmlns="http://www.w3.org/2000/svg" xmlns:xlink="http://www.w3.org/1999/xlink" x="0px" y="0px"
	 viewBox="0 0 100 100" style="enable-background:new 0 0 100 100;" xml:space="preserve">
<style type="text/css">
	.st0{fill:#9D9D9C;}
</style>
<path class="st0" d="M50,5c24.81,0,45,20.19,45,45S74.81,95,50,95S5,74.81,5,50S25.19,5,50,5 M50,0C22.39,0,0,22.39,0,50
	s22.39,50,50,50s50-22.39,50-50S77.61,0,50,0L50,0z"/>
<path class="st0" d="M77.49,27.21c-0.11-0.82-0.7-1.49-1.49-1.71l-25.45-7.08c-0.36-0.1-0.75-0.1-1.11,0L24,25.5
	c-0.79,0.22-1.38,0.89-1.49,1.71c-0.15,1.06-3.51,26.14,5.12,38.61c8.63,12.46,21.35,15.65,21.89,15.78
	c0.16,0.04,0.32,0.06,0.49,0.06s0.33-0.02,0.49-0.06c0.54-0.13,13.26-3.32,21.89-15.78C81.01,53.34,77.64,28.27,77.49,27.21z
	 M66.41,41.84L49.05,59.2c-0.4,0.4-0.93,0.61-1.46,0.61c-0.53,0-1.06-0.2-1.46-0.61L35.4,48.47c-0.39-0.39-0.61-0.91-0.61-1.46
	s0.22-1.08,0.61-1.46l2.13-2.13c0.81-0.81,2.12-0.81,2.93,0l7.14,7.14l13.76-13.76c0.39-0.39,0.91-0.61,1.46-0.61
	s1.08,0.22,1.46,0.61l2.13,2.13C67.22,39.73,67.22,41.04,66.41,41.84z"/>
</svg>
