<?xml version="1.0" encoding="utf-8"?>
<!-- Generator: Adobe Illustrator 24.0.1, SVG Export Plug-In . SVG Version: 6.00 Build 0)  -->
<svg version="1.1" id="Layer_1" xmlns="http://www.w3.org/2000/svg" xmlns:xlink="http://www.w3.org/1999/xlink" x="0px" y="0px"
	 viewBox="0 0 100 100" style="enable-background:new 0 0 100 100;" xml:space="preserve">
<style type="text/css">
	.st0{fill:#9D9D9C;}
</style>
<path class="st0" d="M50,5c24.81,0,45,20.19,45,45S74.81,95,50,95S5,74.81,5,50S25.19,5,50,5 M50,0C22.39,0,0,22.39,0,50
	s22.39,50,50,50s50-22.39,50-50S77.61,0,50,0L50,0z"/>
<g>
	<g>
		<path class="st0" d="M79.8,52.38c-4.82-0.26-8.83-1.55-11.97-3.66c-0.66-0.44-1.51-0.44-2.17,0c-3.14,2.11-7.14,3.4-11.97,3.66
			c-1.03,0.06-1.84,0.91-1.84,1.94v9.41c0.03,6.97,5.57,11.96,13.81,16.49c0.67,0.37,1.49,0.37,2.15,0
			c8.24-4.54,13.78-9.52,13.81-16.49v-9.41C81.63,53.28,80.83,52.43,79.8,52.38z M67.96,77.56c-0.25,0.14-0.56,0.14-0.81,0
			c-0.25-0.14-0.41-0.41-0.41-0.7V63.73H54.92c-0.45,0-0.81-0.36-0.81-0.81v-7.56c0-0.42,0.32-0.77,0.74-0.81
			c4.06-0.34,7.64-1.38,10.69-3.11c0.25-0.14,0.56-0.14,0.81,0c0.25,0.14,0.4,0.41,0.4,0.7v11.58h11.79c0.23,0,0.45,0.1,0.6,0.26
			c0.15,0.17,0.23,0.39,0.21,0.62C78.94,69.26,75.44,73.24,67.96,77.56z"/>
		<path class="st0" d="M49.82,52.33c0-1.07,0.87-1.94,1.94-1.94h0.1c5.61,0,10.19-1.37,13.63-4.06l0.06-0.05
			c0.71-0.55,1.7-0.55,2.4,0l0.06,0.05c1.56,1.22,3.36,2.16,5.38,2.83V32.73c0-0.71-0.41-1.36-1.06-1.65L47.46,19.67
			c-0.47-0.21-1-0.22-1.48-0.02L19.46,31.1c-0.67,0.29-1.1,0.94-1.1,1.67v29.21c0,0.72,0.42,1.37,1.08,1.66l25.7,11.42
			c0.47,0.21,1,0.21,1.48,0l6.08-2.7c-1.74-2.48-2.86-5.32-2.87-8.62C49.82,63.73,49.82,52.33,49.82,52.33z M41.8,69.11l-19.36-8.61
			V37.84l19.36,8.61V69.11z"/>
	</g>
</g>
</svg>
