<?xml version="1.0" encoding="utf-8"?>
<!-- Generator: Adobe Illustrator 24.0.1, SVG Export Plug-In . SVG Version: 6.00 Build 0)  -->
<svg version="1.1" id="Layer_1" xmlns="http://www.w3.org/2000/svg" xmlns:xlink="http://www.w3.org/1999/xlink" x="0px" y="0px"
	 viewBox="0 0 100 100" style="enable-background:new 0 0 100 100;" xml:space="preserve">
<style type="text/css">
	.st0{fill:#FFFFFF;}
</style>
<path class="st0" d="M50,5c24.81,0,45,20.19,45,45S74.81,95,50,95S5,74.81,5,50S25.19,5,50,5 M50,0C22.39,0,0,22.39,0,50
	s22.39,50,50,50s50-22.39,50-50S77.61,0,50,0L50,0z"/>
<g>
	<g>
		<g>
			<path class="st0" d="M73.73,52.26h-5.16c0.53,1.44,0.81,2.99,0.81,4.61v19.5c0,0.68-0.12,1.32-0.33,1.93h8.53
				c3.19,0,5.78-2.59,5.78-5.78V61.89C83.36,56.58,79.04,52.26,73.73,52.26z"/>
		</g>
	</g>
	<g>
		<g>
			<path class="st0" d="M30.62,56.87c0-1.62,0.29-3.17,0.81-4.61h-5.16c-5.31,0-9.63,4.32-9.63,9.63v10.63
				c0,3.19,2.59,5.78,5.78,5.78h8.53c-0.21-0.6-0.33-1.25-0.33-1.93V56.87z"/>
		</g>
	</g>
	<g>
		<g>
			<path class="st0" d="M55.9,47.24H44.1c-5.31,0-9.63,4.32-9.63,9.63v19.5c0,1.06,0.86,1.93,1.93,1.93H63.6
				c1.06,0,1.93-0.86,1.93-1.93v-19.5C65.53,51.56,61.21,47.24,55.9,47.24z"/>
		</g>
	</g>
	<g>
		<g>
			<path class="st0" d="M50,21.7c-6.39,0-11.58,5.2-11.58,11.58c0,4.33,2.39,8.12,5.92,10.1c1.68,0.94,3.61,1.48,5.66,1.48
				c2.05,0,3.99-0.54,5.66-1.48c3.53-1.99,5.92-5.77,5.92-10.1C61.58,26.9,56.39,21.7,50,21.7z"/>
		</g>
	</g>
	<g>
		<g>
			<path class="st0" d="M29.66,32.5c-4.78,0-8.66,3.89-8.66,8.66s3.89,8.66,8.66,8.66c1.21,0,2.37-0.25,3.41-0.7
				c1.81-0.78,3.31-2.16,4.23-3.89c0.65-1.21,1.02-2.6,1.02-4.07C38.32,36.38,34.44,32.5,29.66,32.5z"/>
		</g>
	</g>
	<g>
		<g>
			<path class="st0" d="M70.34,32.5c-4.78,0-8.66,3.89-8.66,8.66c0,1.47,0.37,2.86,1.02,4.07c0.92,1.73,2.42,3.11,4.23,3.89
				c1.05,0.45,2.2,0.7,3.41,0.7c4.78,0,8.66-3.89,8.66-8.66S75.12,32.5,70.34,32.5z"/>
		</g>
	</g>
</g>
</svg>
